<svg width="960" height="720" viewBox="0 0 960 720" fill="none" xmlns="http://www.w3.org/2000/svg" role="img" aria-labelledby="title desc">
  <title id="title">Placeholder для фото шиномонтажа</title>
  <desc id="desc">TODO: заменить на реальные фотографии сервиса, если владелец передаст материалы.</desc>
  <rect width="960" height="720" rx="8" fill="#F1F5F9"/>
  <rect x="72" y="88" width="816" height="544" rx="8" fill="#FFFFFF" stroke="#CBD5E1" stroke-width="2"/>
  <path d="M126 512H834" stroke="#CBD5E1" stroke-width="8" stroke-linecap="round"/>
  <circle cx="342" cy="382" r="116" fill="#111827"/>
  <circle cx="342" cy="382" r="74" fill="#F8FAFC"/>
  <circle cx="342" cy="382" r="28" fill="#EA580C"/>
  <path d="M342 266V310M342 454V498M226 382H270M414 382H458M260 300L292 332M392 432L424 464M424 300L392 332M292 432L260 464" stroke="#475569" stroke-width="12" stroke-linecap="round"/>
  <rect x="500" y="244" width="258" height="64" rx="8" fill="#E2E8F0"/>
  <rect x="500" y="328" width="310" height="28" rx="8" fill="#CBD5E1"/>
  <rect x="500" y="376" width="260" height="28" rx="8" fill="#CBD5E1"/>
  <rect x="500" y="448" width="176" height="56" rx="8" fill="#EA580C"/>
  <text x="588" y="484" text-anchor="middle" font-family="Arial, sans-serif" font-size="20" font-weight="700" fill="#FFFFFF">24 часа</text>
  <text x="480" y="612" text-anchor="middle" font-family="Arial, sans-serif" font-size="20" fill="#64748B">TODO: фото сервиса / колеса / рабочего места</text>
</svg>
